<?xml version="1.0" encoding="utf-8"?>
<!-- Generator: Adobe Illustrator 16.0.0, SVG Export Plug-In . SVG Version: 6.00 Build 0)  -->
<!DOCTYPE svg PUBLIC "-//W3C//DTD SVG 1.1//EN" "http://www.w3.org/Graphics/SVG/1.1/DTD/svg11.dtd">
<svg version="1.1" id="Layer_1" xmlns="http://www.w3.org/2000/svg" xmlns:xlink="http://www.w3.org/1999/xlink" x="0px" y="0px"
	 width="500px" height="500px" viewBox="0 0 500 500" enable-background="new 0 0 500 500" xml:space="preserve">
<g>
	<path fill-rule="evenodd" clip-rule="evenodd" fill="none" d="M27.554,492.643c0-162.655,0-325.311,0-487.967
		c155.3,0,310.599,0,465.898,0c0,166.743,0,333.485,0,500.228c-155.3,0-310.599,0-465.898,0c0-2.452,0-4.904,0-7.356
		c33.011,0.592,66.023,1.669,99.033,1.575c16.985-0.048,33.964-2.186,51.426-3.413c2.2-25.933,4.292-50.579,6.494-76.551
		c33.361,8.18,65.594,15.398,98.714,6.94c0.973-2.526,1.94-5.045,3.015-7.838c61.744-5.429,123.026-10.816,185.42-16.301
		c0.604-7.786,3.064-14.796,1.262-20.443c-8.776-27.48-18.692-54.598-28.585-82.928c-25.902,5.183-50.897,10.186-76.098,15.228
		c-15.055-50.008-15.062-102.932-40.13-149.105c-3.131,0-5.873,0-9.5,0c-23.841-52.43-47.731-104.972-72.256-158.904
		c-28.501,20.334-55.651,39.706-83.026,59.235c-4.017,19.72-7.991,39.224-11.92,58.509c9.296,11.19,18.03,21.705,27.618,33.247
		c-37.949,20.649-74.414,40.491-111.118,60.462c-5.401,16.712-10.737,33.228-16.2,50.132c11.445,6.216,21.75,11.813,32.39,17.595
		c-0.971,4.392-1.689,8.351-2.728,12.224c-14.143,52.764-28.253,105.535-42.562,158.254
		C35.413,467.954,31.322,480.255,27.554,492.643z"/>
	<path fill-rule="evenodd" clip-rule="evenodd" d="M37.821,486.835l56.538-207.656l-32.39-17.594l16.2-50.132l111.118-60.462
		l-27.618-33.247l11.92-58.509L256.615,0L330,161l8.372-2.096L354.5,190l24.002,118.009l76.098-15.227l28.585,82.928l-1.262,20.443
		l-185.42,16.301l-3.015,7.838l-41.97,3.414l-56.744-10.355l-6.494,76.551l-51.426,3.414l-99.033-1.576V486.835z M206.945,256.879
		c-1.583,20.179-3.07,39.144-4.588,58.503c12.93,7.479,25.216,14.584,37.647,21.773c18.781-4.039,37.254-8.014,56.157-12.08
		c-1.224-17.979-2.223-34.203-3.538-50.406c-0.221-2.713-1.188-5.832-2.88-7.883c-8.485-10.296-17.327-20.297-26.071-30.437
		C244.33,243.349,226.006,249.981,206.945,256.879z"/>
	<polygon fill-rule="evenodd" clip-rule="evenodd" fill="none" points="196.678,262.686 253.404,242.157 281.667,275.667 
		285.894,330.883 229.737,342.963 192.09,321.189 	"/>
</g>
</svg>
