<?xml version="1.0" encoding="utf-8"?>
<!-- Generator: Adobe Illustrator 16.0.0, SVG Export Plug-In . SVG Version: 6.00 Build 0)  -->
<!DOCTYPE svg PUBLIC "-//W3C//DTD SVG 1.1//EN" "http://www.w3.org/Graphics/SVG/1.1/DTD/svg11.dtd">
<svg version="1.1" id="Layer_1" xmlns="http://www.w3.org/2000/svg" xmlns:xlink="http://www.w3.org/1999/xlink" x="0px" y="0px"
	 width="500px" height="500px" viewBox="0 0 500 500" enable-background="new 0 0 500 500" xml:space="preserve">
<g>
	<path fill-rule="evenodd" clip-rule="evenodd" fill="none" d="M435.213,147.608c0-20.871-0.192-41.744,0.118-62.609
		c0.092-6.18-2.147-9.791-7.479-12.741c-15.363-8.499-30.581-17.272-45.62-26.331c-5.222-3.145-9.451-3.279-14.733-0.098
		c-15.255,9.191-30.922,17.701-46.16,26.92c-5.499,3.326-9.81,3.23-15.366-0.026c-34.688-20.333-69.632-40.226-104.356-60.496
		c-6.89-4.021-13.037-4.413-19.976-0.239c-14.172,8.525-28.46,16.881-42.975,24.804c-5.982,3.267-8.006,7.47-7.857,14.107
		c0.377,16.789-0.291,33.608,0.302,50.385c0.281,7.965-2.586,12.376-9.409,16.236c-35.218,19.92-70.127,40.386-105.278,60.425
		c-5.479,3.123-8.025,6.724-7.868,13.274c0.417,17.297,0.401,34.617,0.008,51.915c-0.147,6.51,2.306,10.294,7.821,13.36
		c14.9,8.284,29.411,17.275,44.409,25.37c6.622,3.574,9.297,7.78,9.218,15.555c-0.41,40.719-0.075,81.444-0.319,122.165
		c-0.038,6.448,2.154,10.247,7.778,13.337c15.164,8.328,30.207,16.913,44.938,25.978c5.851,3.601,10.415,3.34,16.089-0.111
		c14.564-8.858,29.594-16.955,44.118-25.875c6.156-3.781,11.044-3.889,17.407-0.144c35.088,20.653,70.504,40.75,105.634,61.335
		c5.793,3.394,10.349,3.522,16.116,0c14.765-9.017,29.789-17.622,44.929-25.998c5.33-2.949,7.629-6.54,7.507-12.728
		c-0.337-17.046,0.338-34.12-0.308-51.149c-0.314-8.312,2.738-12.772,9.819-16.776c35.22-19.915,70.101-40.43,105.226-60.516
		c5.263-3.009,7.592-6.588,7.472-12.772c-0.337-17.555-0.335-35.125,0-52.681c0.116-6.142-1.991-9.809-7.378-12.781
		c-15.592-8.608-30.823-17.867-46.393-26.52c-5.598-3.111-7.653-7.115-7.548-13.493C435.437,188.334,435.224,167.97,435.213,147.608
		z"/>
	<path fill-rule="evenodd" clip-rule="evenodd" d="M435.098,208.69c-0.105,6.378,1.95,10.382,7.548,13.493
		c15.569,8.653,30.801,17.912,46.393,26.52c5.387,2.973,7.494,6.64,7.378,12.781c-0.335,17.556-0.337,35.126,0,52.681
		c0.12,6.185-2.209,9.764-7.472,12.772c-35.125,20.086-70.006,40.601-105.226,60.516c-7.081,4.004-10.134,8.465-9.819,16.776
		c0.646,17.029-0.029,34.104,0.308,51.149c0.122,6.188-2.177,9.778-7.507,12.728c-15.14,8.376-30.164,16.981-44.929,25.998
		c-5.768,3.522-10.323,3.394-16.116,0c-35.13-20.585-70.546-40.682-105.634-61.335c-6.362-3.745-11.251-3.638-17.407,0.144
		c-14.523,8.92-29.553,17.017-44.118,25.875c-5.675,3.451-10.239,3.712-16.089,0.111c-14.731-9.064-29.774-17.649-44.938-25.978
		c-5.624-3.09-7.816-6.889-7.778-13.337c0.245-40.721-0.09-81.446,0.319-122.165c0.079-7.774-2.596-11.98-9.218-15.555
		c-14.998-8.095-29.509-17.086-44.409-25.37c-5.515-3.066-7.968-6.851-7.821-13.36c0.393-17.298,0.408-34.618-0.008-51.915
		c-0.157-6.55,2.39-10.151,7.868-13.274c35.151-20.039,70.06-40.505,105.278-60.425c6.823-3.86,9.69-8.271,9.409-16.236
		c-0.592-16.777,0.075-33.596-0.302-50.385c-0.149-6.637,1.875-10.84,7.857-14.107c14.515-7.923,28.803-16.279,42.975-24.804
		c6.939-4.174,13.086-3.782,19.976,0.239c34.724,20.27,69.668,40.163,104.356,60.496c5.557,3.257,9.867,3.353,15.366,0.026
		c15.238-9.219,30.905-17.729,46.16-26.92c5.282-3.182,9.512-3.047,14.733,0.098c15.039,9.058,30.257,17.832,45.62,26.331
		c5.332,2.95,7.571,6.561,7.479,12.741C435.021,105.864,435.437,188.334,435.098,208.69z M190.77,252.377
		c0,9.669,0.15,19.341-0.065,29.005c-0.102,4.53,1.271,7.69,5.343,10.013c17.238,9.826,34.276,20.012,51.656,29.578
		c2.547,1.401,7.204,1.364,9.766-0.043c17.386-9.554,34.575-19.484,51.544-29.763c2.512-1.521,4.941-5.485,5.004-8.372
		c0.433-20.091,0.428-40.199,0.014-60.291c-0.061-2.93-2.318-7.004-4.797-8.504c-17.191-10.403-34.64-20.39-52.209-30.143
		c-2.213-1.229-6.221-1.412-8.369-0.222c-17.803,9.854-35.337,20.194-53.02,30.269c-3.832,2.183-4.992,5.27-4.918,9.468
		C190.889,233.038,190.772,242.708,190.77,252.377z"/>
	<path fill-rule="evenodd" clip-rule="evenodd" fill="none" d="M190.718,223.372c-0.074-4.198,1.087-7.285,4.918-9.468
		c17.683-10.075,35.217-20.415,53.02-30.269c2.148-1.19,6.156-1.006,8.369,0.222c17.569,9.753,35.018,19.74,52.209,30.143
		c2.479,1.5,4.736,5.574,4.797,8.504c0.414,20.092,0.419,40.2-0.014,60.291c-0.063,2.887-2.492,6.852-5.004,8.372
		c-16.969,10.278-34.158,20.209-51.544,29.763c-2.563,1.407-7.219,1.444-9.766,0.043c-17.38-9.566-34.417-19.752-51.656-29.578
		c-4.072-2.322-5.445-5.482-5.343-10.013C190.92,271.718,190.889,233.038,190.718,223.372z"/>
</g>
</svg>
